<svg version="1.1" id="svg2" width="298.66666" height="298.66666" viewBox="0 0 298.66666 298.66666"
  xmlns="http://www.w3.org/2000/svg" xmlns:svg="http://www.w3.org/2000/svg">
  <defs id="defs6">
    <clipPath clipPathUnits="userSpaceOnUse" id="clipPath16">
      <path d="M 0,224 H 224 V 0 H 0 Z" id="path14"></path>
    </clipPath>
  </defs>
  <g id="g8" transform="matrix(1.3333333,0,0,-1.3333333,0,298.66667)">
    <g id="g10">
      <g id="g12" clip-path="url(#clipPath16)">
        <g id="g18" transform="translate(149.9351,215.9492)">
          <path
            d="m 0,0 -1.088,0.398 -0.05,-0.02 C 12.03,-4.295 24.067,-11.379 34.427,-20.353 24.447,-11.682 12.852,-4.705 0,0"
            style="fill:#ee3124;fill-opacity:1;fill-rule:nonzero;stroke:none" id="path20"></path>
        </g>
        <g id="g22" transform="translate(193.1851,49.9805)">
          <path
            d="M 0,0 C -1.171,4.09 -0.503,8.715 0.143,13.188 2.464,29.256 4.232,43.749 2.34,58.387 0.761,70.609 -5.014,77.5 -16.384,80.728 -25.09,83.2 -30.119,87.144 -34.941,95.28 c -3.564,6.014 -5.473,10.739 -3.982,15.703 1.25,4.162 4.137,7.141 6.339,8.907 0.928,0.745 1.929,1.438 2.988,2.172 2.381,1.649 4.842,3.355 6.772,5.858 1.989,2.58 2.957,6.09 2.526,9.159 -0.343,2.445 -1.502,4.459 -3.352,5.822 -1.904,1.403 -4.104,1.807 -6.121,1.807 -1.212,0 -2.359,-0.146 -3.334,-0.308 -1.395,-0.233 -2.766,-0.533 -4.092,-0.823 -2.386,-0.523 -4.641,-1.016 -6.877,-1.1 -3.452,-0.132 -6.369,0.932 -7.806,2.846 -1.576,2.097 -1.513,5.515 0.153,8.311 1.597,2.679 3.981,4.684 7.469,6.273 -2.444,0.928 -4.931,1.767 -7.458,2.513 -2.128,-1.616 -3.848,-3.504 -5.165,-5.715 -2.925,-4.909 -2.843,-10.931 0.204,-14.986 2.657,-3.537 7.323,-5.441 12.83,-5.239 2.77,0.105 5.395,0.68 7.934,1.236 1.31,0.287 2.547,0.558 3.793,0.765 2.39,0.398 3.995,0.264 4.91,-0.41 0.528,-0.389 0.855,-1.004 0.971,-1.826 0.208,-1.481 -0.329,-3.355 -1.337,-4.662 -1.361,-1.766 -3.341,-3.137 -5.437,-4.589 -1.097,-0.761 -2.233,-1.547 -3.325,-2.424 -4.11,-3.297 -6.991,-7.398 -8.331,-11.861 -2.351,-7.827 1.124,-14.679 4.566,-20.487 5.639,-9.515 11.829,-14.356 22.08,-17.265 C -8.93,72.375 -4.889,67.513 -3.61,57.617 -1.815,43.732 -3.538,29.67 -5.795,14.045 -6.498,9.184 -7.293,3.674 -5.768,-1.653 c 0.725,-2.528 1.925,-4.372 3.572,-5.494 1.346,1.546 2.644,3.135 3.899,4.759 C 1.543,-2.353 1.4,-2.31 1.292,-2.255 0.811,-2.007 0.34,-1.185 0,0"
            style="fill:#ee3124;fill-opacity:1;fill-rule:nonzero;stroke:none" id="path24"></path>
        </g>
        <g id="g26" transform="translate(197.686,41.3809)">
          <path
            d="M 0,0 0.954,1.197 C 13.189,16.556 20.932,34.366 23.809,53.413 20.733,33.346 12.261,15.034 -0.071,0.003 Z"
            style="fill:#ee3124;fill-opacity:1;fill-rule:nonzero;stroke:none" id="path28"></path>
        </g>
        <g id="g30" transform="translate(188.573,183.2068)">
          <path
            d="M 0,0 C 16.731,-18.024 27.031,-41.727 28.105,-67.114 27.031,-41.241 16.551,-17.758 0,0"
            style="fill:#ee3124;fill-opacity:1;fill-rule:nonzero;stroke:none" id="path32"></path>
        </g>
        <g id="g34" transform="translate(36.3931,140.4761)">
          <path
            d="m 0,0 c 0.699,-1.417 -0.605,-3.903 -1.445,-5.259 -9.437,-15.242 -3.942,-25.718 7.213,-36.759 3.58,-3.542 5.458,-8.463 5.151,-13.5 -1.249,-20.571 19.257,-49.227 30.527,-51.547 0.853,-0.176 1.802,-0.326 2.763,-0.326 1.356,0 2.737,0.3 3.908,1.249 2.513,2.039 2.529,5.413 2.557,11.54 0.03,6.211 0.074,15.597 2.57,29.205 1.632,8.895 5.878,17.134 12.278,23.827 14.267,14.919 19.618,27.097 16.357,37.23 -5.217,16.215 -31.304,21.101 -48.566,24.334 -4.107,0.769 -7.655,1.433 -10.143,2.108 -3.426,0.929 -3.658,2.506 -3.745,3.101 -1.236,8.406 19.725,29.191 33.545,37.79 5.819,3.621 9.213,7.815 10.142,12.492 C 60.868,75.223 58.645,74.893 56.446,74.491 55.291,72.265 53.068,70.121 49.8,68.087 38.654,61.152 11.487,37.953 13.489,24.33 c 0.406,-2.765 2.143,-6.4 8.111,-8.019 2.718,-0.737 6.375,-1.422 10.608,-2.215 14.9,-2.79 39.837,-7.461 43.959,-20.274 2.489,-7.735 -2.551,-18.247 -14.981,-31.245 -7.213,-7.542 -11.999,-16.842 -13.843,-26.892 -2.593,-14.13 -2.638,-23.836 -2.669,-30.259 -0.012,-2.718 -0.027,-5.77 -0.367,-6.816 -0.262,-0.01 -0.763,0.018 -1.651,0.202 -7.95,1.637 -26.84,27.314 -25.747,45.307 0.41,6.762 -2.112,13.37 -6.921,18.128 -11.355,11.239 -12.953,18.641 -6.331,29.336 2.654,4.286 3.234,8.011 1.724,11.072 -2.482,5.029 -9.606,6.722 -19.539,7.717 -2.438,0.244 -4.827,0.947 -7.023,2.054 -0.787,-1.837 -1.523,-3.701 -2.206,-5.589 2.715,-1.299 5.642,-2.136 8.631,-2.435 C -11.481,4.074 -1.518,3.076 0,0"
            style="fill:#ee3124;fill-opacity:1;fill-rule:nonzero;stroke:none" id="path36"></path>
        </g>
        <g id="g38" transform="translate(66.0768,212.8327)">
          <path
            d="m 0,0 c -25.81,-11.682 -46.67,-33.037 -57.445,-60.074 -0.035,-0.086 -0.054,-0.175 -0.079,-0.262 C -46.898,-33.555 -26.138,-11.856 0,0"
            style="fill:#ee3124;fill-opacity:1;fill-rule:nonzero;stroke:none" id="path40"></path>
        </g>
        <g id="g42" transform="translate(96.3628,221.6118)">
          <path
            d="m 0,0 c -0.099,-0.014 -0.197,-0.032 -0.296,-0.046 0.114,0.016 0.227,0.032 0.34,0.047 C 0.029,0 0.015,0.002 0,0"
            style="fill:#ee3124;fill-opacity:1;fill-rule:nonzero;stroke:none" id="path44"></path>
        </g>
        <g id="g46" transform="translate(216.701,107.8637)">
          <path
            d="m 0,0 c -0.012,-0.34 -0.023,-0.68 -0.039,-1.02 -0.05,-1.135 -0.12,-2.267 -0.206,-3.396 -0.043,-0.546 -0.095,-1.09 -0.146,-1.634 -0.051,-0.56 -0.11,-1.119 -0.17,-1.677 -2.159,-19.643 -9.756,-37.671 -21.252,-52.544 -1.255,-1.624 -2.553,-3.213 -3.899,-4.76 -19.265,-22.135 -47.632,-36.15 -79.211,-36.15 -57.897,0 -105,47.102 -105,105 0,12.502 2.201,24.5 6.228,35.63 0.683,1.889 1.419,3.753 2.206,5.59 11.317,26.41 33.16,47.277 60.225,57.293 0.172,0.064 0.345,0.128 0.518,0.191 0.653,0.238 1.31,0.47 1.97,0.695 0.256,0.087 0.514,0.171 0.771,0.257 0.627,0.208 1.254,0.416 1.885,0.613 0.124,0.038 0.249,0.073 0.373,0.111 1.136,0.35 2.281,0.677 3.433,0.988 0.515,0.139 1.03,0.279 1.548,0.41 0.425,0.108 0.851,0.21 1.277,0.313 0.578,0.139 1.158,0.273 1.739,0.403 0.375,0.083 0.75,0.166 1.127,0.246 0.748,0.157 1.499,0.306 2.252,0.447 0.17,0.032 0.339,0.067 0.509,0.098 2.199,0.402 4.422,0.731 6.666,0.994 4.027,0.471 8.121,0.721 12.273,0.721 10.308,0 20.272,-1.5 29.691,-4.282 2.527,-0.746 5.014,-1.585 7.458,-2.513 13.073,-4.961 24.906,-12.459 34.894,-21.894 0.26,-0.246 0.52,-0.493 0.777,-0.742 0.441,-0.424 0.88,-0.849 1.313,-1.281 0.718,-0.72 1.428,-1.448 2.125,-2.188 0.181,-0.19 0.358,-0.384 0.537,-0.576 C -11.577,57.585 -1.097,34.102 -0.023,8.229 -0.013,7.99 -0.004,7.751 0.005,7.511 0.048,6.284 0.077,5.054 0.077,3.819 0.077,2.54 0.046,1.268 0,0 M 5.999,7.76 C 5.991,8.01 5.981,8.258 5.971,8.507 4.812,36.254 -6.574,61.402 -24.517,80.265 c -0.024,0.026 -0.048,0.053 -0.073,0.079 -0.768,0.806 -1.552,1.596 -2.343,2.378 -0.403,0.399 -0.808,0.796 -1.217,1.188 -0.324,0.312 -0.654,0.618 -0.982,0.925 -1.036,0.97 -2.086,1.925 -3.159,2.855 -0.016,0.014 -0.032,0.029 -0.048,0.043 -10.36,8.974 -22.397,16.058 -35.565,20.73 -11.584,4.11 -24.044,6.356 -37.019,6.356 -5.216,0 -10.346,-0.37 -15.372,-1.069 -0.113,-0.016 -0.226,-0.032 -0.339,-0.048 -1.021,-0.145 -2.037,-0.303 -3.049,-0.476 -0.153,-0.027 -0.307,-0.05 -0.46,-0.077 -1.13,-0.198 -2.255,-0.412 -3.374,-0.644 -0.2,-0.042 -0.399,-0.088 -0.598,-0.131 -0.875,-0.186 -1.745,-0.383 -2.612,-0.59 -0.367,-0.088 -0.733,-0.177 -1.099,-0.269 -0.731,-0.183 -1.459,-0.374 -2.185,-0.571 -0.364,-0.099 -0.731,-0.194 -1.094,-0.297 -0.965,-0.273 -1.926,-0.558 -2.881,-0.856 -0.48,-0.15 -0.956,-0.31 -1.433,-0.467 -0.517,-0.169 -1.033,-0.34 -1.547,-0.516 -0.563,-0.194 -1.125,-0.392 -1.684,-0.595 -0.382,-0.138 -0.762,-0.281 -1.142,-0.424 -2.25,-0.843 -4.467,-1.753 -6.645,-2.736 -0.062,-0.028 -0.125,-0.056 -0.187,-0.084 -26.138,-11.856 -46.898,-33.555 -57.525,-60.336 -5.015,-12.64 -7.774,-26.41 -7.774,-40.814 0,-61.206 49.794,-111 111,-111 34.551,0 65.463,15.87 85.837,40.701 12.332,15.031 20.804,33.343 23.88,53.41 0.002,0.01 0.003,0.019 0.004,0.028 0.224,1.462 0.411,2.936 0.577,4.416 0.071,0.632 0.138,1.264 0.198,1.899 0.054,0.569 0.107,1.139 0.152,1.711 0.096,1.214 0.171,2.433 0.227,3.657 0.016,0.343 0.027,0.687 0.039,1.032 0.051,1.376 0.086,2.757 0.086,4.146 0,1.32 -0.032,2.632 -0.078,3.941"
            style="fill:#770000;fill-opacity:1;fill-rule:nonzero;stroke:none" id="path48"></path>
        </g>
      </g>
    </g>
  </g>
</svg>