<?xml version="1.0" encoding="UTF-8" standalone="no"?>
<!-- Created with Inkscape (http://www.inkscape.org/) -->

<svg
   version="1.1"
   id="svg2"
   width="298.66666"
   height="298.66666"
   viewBox="0 0 298.66666 298.66666"
   xmlns="http://www.w3.org/2000/svg"
   xmlns:svg="http://www.w3.org/2000/svg">
  <defs
     id="defs6">
    <clipPath
       clipPathUnits="userSpaceOnUse"
       id="clipPath16">
      <path
         d="M 0,224 H 224 V 0 H 0 Z"
         id="path14" />
    </clipPath>
  </defs>
  <g
     id="g8"
     transform="matrix(1.3333333,0,0,-1.3333333,0,298.66667)">
    <g
       id="g10">
      <g
         id="g12"
         clip-path="url(#clipPath16)">
        <g
           id="g18"
           transform="translate(187.0485,76.8809)">
          <path
             d="m 0,0 h -18.668 c -1.381,0 -2.5,-1.119 -2.5,-2.5 v -9.991 -7.483 h -5.14 v 7.483 9.991 9.99 c 0,1.381 -1.119,2.5 -2.5,2.5 h -30.003 c -1.381,0 -2.5,-1.119 -2.5,-2.5 v -9.99 -9.991 -7.483 h -5.01 v 7.483 c 0,1.381 -1.12,2.5 -2.5,2.5 h -16.954 v 70.589 c 0,1.624 -0.343,3.168 -0.952,4.57 l 17.222,50.334 22.324,-7.638 -1.456,-4.255 c -0.215,-0.627 -0.171,-1.314 0.121,-1.909 0.291,-0.596 0.808,-1.051 1.435,-1.265 L 1.139,83.936 c 0.264,-0.091 0.537,-0.135 0.81,-0.135 0.378,0 0.754,0.085 1.1,0.255 0.596,0.292 1.051,0.808 1.265,1.436 L 5.77,89.746 28.094,82.108 Z M 8.835,-9.991 H -16.168 V -5 H 8.835 Z m -25.003,-5 H 8.835 v -4.99 H -16.168 Z M 12.798,-34.843 H 5.356 -30.861 v 9.862 h 2.053 c 0.027,0 0.051,0.007 0.078,0.007 h 9.984 c 0.027,0 0.051,-0.007 0.078,-0.007 h 30.003 c 0.027,0 0.051,0.007 0.078,0.007 h 1.385 z m -9.942,-14.87 h -43.658 v 9.87 h 7.441 36.217 z m -54.615,14.87 v 9.862 h 15.898 v -9.862 h -7.441 z m 5.957,-14.87 H -61.7 v 9.87 h 7.441 8.457 z m 14.494,39.722 H -56.311 V -5 h 25.003 z m 0,9.991 h -25.003 v 4.99 h 25.003 z m 0,-19.981 h -25.003 v 4.99 h 25.003 z m -59.715,-14.862 c -1.7,3.979 -5.161,7.02 -9.394,8.172 v 1.697 h 1.515 c 0.026,0 0.051,-0.007 0.077,-0.007 h 30.004 c 0.026,0 0.051,0.007 0.077,0.007 h 9.855 c 0.027,0 0.051,-0.007 0.078,-0.007 h 2.052 v -9.862 H -64.2 Z m 1.113,-5 h 23.21 v -9.87 h -26.628 c 2.144,2.498 3.448,5.736 3.448,9.278 0,0.2 -0.022,0.394 -0.03,0.592 m -11.415,19.869 h -1.592 c -1.381,0 -2.5,-1.119 -2.5,-2.5 v -3.746 c -1.639,-0.144 -3.196,-0.569 -4.63,-1.222 -1.798,0.818 -3.788,1.286 -5.889,1.286 -4.817,0 -9.076,-2.405 -11.663,-6.069 v 15.346 c 0,1.998 1.626,3.623 3.623,3.623 h 19.523 c 1.342,0 2.502,-0.741 3.128,-1.828 z m -23.889,-20.461 c 0,5.117 4.162,9.279 9.278,9.279 5.116,0 9.278,-4.162 9.278,-9.279 0,-5.116 -4.162,-9.278 -9.278,-9.278 -5.116,0 -9.278,4.162 -9.278,9.278 m 21.056,-9.278 c -0.306,0 -0.608,0.017 -0.906,0.046 2.119,2.492 3.406,5.713 3.406,9.232 0,3.52 -1.287,6.741 -3.406,9.233 0.298,0.029 0.6,0.046 0.906,0.046 5.116,0 9.278,-4.162 9.278,-9.279 0,-5.116 -4.162,-9.278 -9.278,-9.278 m 32.837,29.732 h -25.003 v 4.99 h 25.003 z m -100.41,-29.821 c -3.584,0 -6.5,2.916 -6.5,6.5 v 103.9 c 0,3.584 2.916,6.5 6.5,6.5 h 74.456 c 3.584,0 6.5,-2.916 6.5,-6.5 V -9.991 h -8.05 c -0.251,0 -0.488,-0.048 -0.716,-0.117 -1.382,1.006 -3.076,1.606 -4.912,1.606 h -19.523 c -4.619,0 -8.377,-3.758 -8.377,-8.377 v -19.522 c 0,-2.196 0.856,-4.19 2.243,-5.686 0.34,-2.935 1.576,-5.596 3.424,-7.715 z m 132.365,165.06 9.528,-3.26 c 0.805,-0.275 1.693,-0.124 2.359,0.403 0.667,0.527 1.021,1.356 0.939,2.202 -0.162,1.677 0.029,3.325 0.566,4.897 1.011,2.953 3.111,5.335 5.913,6.709 2.802,1.374 5.971,1.573 8.925,0.563 2.953,-1.01 5.336,-3.109 6.709,-5.912 1.374,-2.802 1.574,-5.972 0.564,-8.925 -0.539,-1.573 -1.397,-2.992 -2.553,-4.217 -0.583,-0.619 -0.811,-1.491 -0.607,-2.316 0.204,-0.825 0.813,-1.489 1.618,-1.764 l 9.528,-3.261 -3.73,-10.901 -43.49,14.88 z M 33.513,84.764 c -0.291,0.596 -0.808,1.051 -1.435,1.265 l -24.689,8.448 2.274,6.648 c 0.215,0.626 0.171,1.313 -0.121,1.909 -0.291,0.595 -0.808,1.05 -1.435,1.265 l -8.647,2.958 c 0.57,0.965 1.04,1.987 1.407,3.059 1.443,4.217 1.157,8.743 -0.804,12.745 -1.962,4.002 -5.364,7 -9.58,8.442 -8.707,2.979 -18.209,-1.68 -21.187,-10.384 -0.367,-1.073 -0.621,-2.168 -0.762,-3.28 l -8.647,2.959 c -0.627,0.215 -1.313,0.171 -1.91,-0.12 -0.595,-0.292 -1.05,-0.809 -1.265,-1.436 l -2.274,-6.647 -24.69,8.447 c -1.31,0.45 -2.728,-0.249 -3.174,-1.555 L -90.423,69.812 c -1.917,1.429 -4.283,2.286 -6.852,2.286 h -74.456 c -6.341,0 -11.5,-5.159 -11.5,-11.5 v -103.9 c 0,-6.341 5.159,-11.5 11.5,-11.5 h 74.456 c 0.463,0 0.917,0.036 1.366,0.089 H -64.2 -43.302 5.356 c 1.381,0 2.5,1.119 2.5,2.5 v 12.37 h 7.442 c 1.381,0 2.5,1.119 2.5,2.5 v 14.869 c 0,1.381 -1.119,2.5 -2.5,2.5 h -1.463 v 7.483 9.991 c 0,1.381 -1.119,2.5 -2.5,2.5 h -6.05 l 28.349,82.854 c 0.215,0.628 0.171,1.315 -0.121,1.91"
             style="fill:#770000;fill-opacity:1;fill-rule:nonzero;stroke:none"
             id="path20" />
        </g>
        <g
           id="g22"
           transform="translate(118.0708,155.8828)">
          <path
             d="m 0,0 42.283,-14.383 c 0.267,-0.091 0.539,-0.134 0.805,-0.134 1.041,0 2.014,0.656 2.367,1.696 0.445,1.307 -0.254,2.727 -1.561,3.172 L 1.61,4.733 C 0.3,5.177 -1.117,4.478 -1.562,3.172 -2.006,1.865 -1.307,0.444 0,0"
             style="fill:#770000;fill-opacity:1;fill-rule:nonzero;stroke:none"
             id="path24" />
        </g>
        <g
           id="g26"
           transform="translate(173.7812,191.4546)">
          <path
             d="m 0,0 c -0.345,-1.008 -1.447,-1.544 -2.454,-1.203 h -10e-4 c -0.488,0.167 -0.882,0.515 -1.109,0.978 -0.227,0.463 -0.26,0.988 -0.093,1.476 0.274,0.802 1.027,1.307 1.83,1.307 0.207,0 0.417,-0.034 0.624,-0.104 C -0.195,2.109 0.345,1.008 0,0 M 0.416,7.185 C -3.2,8.424 -7.15,6.486 -8.388,2.87 c -1.237,-3.617 0.699,-7.566 4.315,-8.804 0.741,-0.253 1.496,-0.374 2.239,-0.374 2.882,0 5.581,1.813 6.564,4.689 1.238,3.617 -0.698,7.566 -4.314,8.804"
             style="fill:#770000;fill-opacity:1;fill-rule:nonzero;stroke:none"
             id="path28" />
        </g>
        <g
           id="g30"
           transform="translate(174.8862,150.0469)">
          <path
             d="m 0,0 -6.998,-19.962 c -0.457,-1.304 0.229,-2.73 1.532,-3.187 l 19.963,-6.998 c 0.274,-0.096 0.552,-0.141 0.827,-0.141 1.032,0 1.998,0.644 2.359,1.673 l 5.995,17.1 -7.156,-5.296 -2.73,-7.79 -15.244,5.344 5.344,15.243 14.601,-5.118 4.838,3.581 c -0.061,0.027 -0.117,0.062 -0.182,0.085 L 3.187,1.532 C 1.882,1.99 0.457,1.303 0,0"
             style="fill:#770000;fill-opacity:1;fill-rule:nonzero;stroke:none"
             id="path32" />
        </g>
        <g
           id="g34"
           transform="translate(185.2847,134.9233)">
          <path
             d="M 0,0 -1.573,5.522 C -1.951,6.85 -3.334,7.621 -4.662,7.241 -5.99,6.863 -6.76,5.48 -6.381,4.152 l 2.562,-8.995 c 0.224,-0.788 0.822,-1.417 1.598,-1.681 0.263,-0.09 0.535,-0.134 0.806,-0.134 0.528,0 1.051,0.168 1.487,0.491 l 6.052,4.479 7.155,5.296 3.867,2.862 c 1.109,0.822 1.343,2.387 0.521,3.497 -0.82,1.109 -2.386,1.343 -3.496,0.522 L 12.933,9.572 8.095,5.991 Z"
             style="fill:#d9291c;fill-opacity:1;fill-rule:nonzero;stroke:none"
             id="path36" />
        </g>
        <g
           id="g38"
           transform="translate(151.3394,113.2603)">
          <path
             d="m 0,0 -43.354,14.096 c -1.313,0.427 -2.724,-0.291 -3.15,-1.604 -0.427,-1.313 0.291,-2.724 1.604,-3.151 L -1.546,-4.755 c 0.257,-0.083 0.517,-0.123 0.774,-0.123 1.053,0 2.033,0.671 2.376,1.727 C 2.031,-1.837 1.313,-0.427 0,0"
             style="fill:#770000;fill-opacity:1;fill-rule:nonzero;stroke:none"
             id="path40" />
        </g>
        <g
           id="g42"
           transform="translate(177.0142,92.1758)">
          <path
             d="m 0,0 -15.243,5.344 5.344,15.243 14.6,-5.119 4.838,3.582 c -0.061,0.027 -0.117,0.062 -0.182,0.085 l -19.961,6.998 c -1.304,0.457 -2.73,-0.229 -3.187,-1.532 L -20.789,4.639 c -0.457,-1.303 0.229,-2.73 1.532,-3.187 L 0.705,-5.546 c 0.274,-0.096 0.553,-0.141 0.827,-0.141 1.032,0 1.999,0.644 2.36,1.673 L 9.886,13.085 2.73,7.788 Z"
             style="fill:#770000;fill-opacity:1;fill-rule:nonzero;stroke:none"
             id="path44" />
        </g>
        <g
           id="g46"
           transform="translate(187.792,112.1421)">
          <path
             d="m 0,0 -1.238,-0.917 -4.839,-3.581 -8.093,-5.991 -1.574,5.522 c -0.378,1.329 -1.761,2.098 -3.089,1.719 -1.328,-0.377 -2.098,-1.761 -1.719,-3.088 l 2.562,-8.996 c 0.225,-0.789 0.823,-1.418 1.599,-1.682 0.263,-0.089 0.535,-0.133 0.806,-0.133 0.528,0 1.051,0.168 1.487,0.49 l 6.051,4.479 7.155,5.297 3.867,2.862 c 1.109,0.822 1.343,2.388 0.522,3.497 C 2.675,0.588 1.11,0.821 0,0"
             style="fill:#d9291c;fill-opacity:1;fill-rule:nonzero;stroke:none"
             id="path48" />
        </g>
        <g
           id="g50"
           transform="translate(18.7739,131.3511)">
          <path
             d="m 0,0 c 0,1.93 1.57,3.5 3.5,3.5 h 59.776 c 1.93,0 3.5,-1.57 3.5,-3.5 v -10.377 c 0,-1.93 -1.57,-3.5 -3.5,-3.5 H 3.5 c -1.93,0 -3.5,1.57 -3.5,3.5 z m 3.5,-18.877 h 59.776 c 4.687,0 8.5,3.813 8.5,8.5 V 0 c 0,4.687 -3.813,8.5 -8.5,8.5 L 3.5,8.5 C -1.187,8.5 -5,4.687 -5,0 v -10.377 c 0,-4.687 3.813,-8.5 8.5,-8.5"
             style="fill:#770000;fill-opacity:1;fill-rule:nonzero;stroke:none"
             id="path52" />
        </g>
        <g
           id="g54"
           transform="translate(46.2158,79.4795)">
          <path
             d="m 0,0 c 0,-1.998 -1.625,-3.623 -3.623,-3.623 h -19.523 c -1.998,0 -3.623,1.625 -3.623,3.623 v 19.522 c 0,1.999 1.625,3.624 3.623,3.624 H -3.623 C -1.625,23.146 0,21.521 0,19.522 Z m -3.623,27.899 h -19.523 c -4.619,0 -8.377,-3.757 -8.377,-8.377 V 0 c 0,-4.619 3.758,-8.377 8.377,-8.377 h 19.523 c 4.619,0 8.377,3.758 8.377,8.377 v 19.522 c 0,4.62 -3.758,8.377 -8.377,8.377"
             style="fill:#770000;fill-opacity:1;fill-rule:nonzero;stroke:none"
             id="path56" />
        </g>
        <g
           id="g58"
           transform="translate(86.2188,79.4795)">
          <path
             d="m 0,0 c 0,-1.998 -1.625,-3.623 -3.623,-3.623 h -19.523 c -1.998,0 -3.623,1.625 -3.623,3.623 v 19.522 c 0,1.999 1.625,3.624 3.623,3.624 H -3.623 C -1.625,23.146 0,21.521 0,19.522 Z m -3.623,27.899 h -19.523 c -4.619,0 -8.377,-3.757 -8.377,-8.377 V 0 c 0,-4.619 3.758,-8.377 8.377,-8.377 h 19.523 c 4.619,0 8.377,3.758 8.377,8.377 v 19.522 c 0,4.62 -3.758,8.377 -8.377,8.377"
             style="fill:#770000;fill-opacity:1;fill-rule:nonzero;stroke:none"
             id="path60" />
        </g>
        <g
           id="g62"
           transform="translate(46.2158,40.4795)">
          <path
             d="m 0,0 c 0,-1.998 -1.625,-3.623 -3.623,-3.623 h -19.523 c -1.998,0 -3.623,1.625 -3.623,3.623 v 19.522 c 0,1.999 1.625,3.624 3.623,3.624 H -3.623 C -1.625,23.146 0,21.521 0,19.522 Z m -3.623,27.899 h -19.523 c -4.619,0 -8.377,-3.757 -8.377,-8.377 V 0 c 0,-4.619 3.758,-8.377 8.377,-8.377 h 19.523 c 4.619,0 8.377,3.758 8.377,8.377 v 19.522 c 0,4.62 -3.758,8.377 -8.377,8.377"
             style="fill:#770000;fill-opacity:1;fill-rule:nonzero;stroke:none"
             id="path64" />
        </g>
        <g
           id="g66"
           transform="translate(24.3174,120.5811)">
          <path
             d="m 0,0 h 55.813 c 1.381,0 2.5,1.119 2.5,2.5 0,1.381 -1.119,2.5 -2.5,2.5 H 0 C -1.381,5 -2.5,3.881 -2.5,2.5 -2.5,1.119 -1.381,0 0,0"
             style="fill:#770000;fill-opacity:1;fill-rule:nonzero;stroke:none"
             id="path68" />
        </g>
      </g>
    </g>
  </g>
</svg>
