<svg version="1.1" id="svg2" width="298.66666" height="298.66666" viewBox="0 0 298.66666 298.66666"
  xmlns="http://www.w3.org/2000/svg" xmlns:svg="http://www.w3.org/2000/svg">
  <defs id="defs6">
    <clipPath clipPathUnits="userSpaceOnUse" id="clipPath16">
      <path d="M 0,224 H 224 V 0 H 0 Z" id="path14"></path>
    </clipPath>
  </defs>
  <g id="g8" transform="matrix(1.3333333,0,0,-1.3333333,0,298.66667)">
    <g id="g10">
      <g id="g12" clip-path="url(#clipPath16)">
        <g id="g18" transform="translate(195.5845,27.1738)">
          <path
            d="m 0,0 h -44.132 v 145.458 c 0,0.106 -0.019,0.206 -0.031,0.308 -0.006,0.045 -0.006,0.09 -0.014,0.134 -0.037,0.207 -0.101,0.408 -0.19,0.601 -0.018,0.039 -0.041,0.075 -0.062,0.114 -0.085,0.162 -0.188,0.316 -0.31,0.459 -0.019,0.022 -0.029,0.05 -0.049,0.072 l -23.836,26.059 c -0.014,0.016 -0.032,0.029 -0.047,0.044 -0.032,0.034 -0.067,0.064 -0.101,0.095 -0.076,0.071 -0.154,0.136 -0.237,0.196 -0.04,0.028 -0.079,0.056 -0.12,0.083 -0.093,0.058 -0.189,0.11 -0.288,0.156 -0.035,0.016 -0.068,0.036 -0.104,0.05 -0.133,0.055 -0.271,0.097 -0.412,0.128 -0.038,0.008 -0.077,0.012 -0.115,0.018 -0.115,0.02 -0.23,0.032 -0.346,0.035 -0.025,0.001 -0.049,0.008 -0.074,0.008 h -63.124 v 16.991 h 109.756 v -23.56 c 0,-0.663 0.263,-1.3 0.732,-1.768 0.469,-0.469 1.105,-0.732 1.768,-0.732 h 0.002 L 0,164.968 Z m -67.968,147.958 v 17.122 l 15.661,-17.122 z m 18.836,-169.949 h -133.592 v 191.009 h 109.756 v -23.56 c 0,-1.381 1.119,-2.5 2.5,-2.5 h 21.336 z m 30.296,209.066 15.663,-17.11 -15.663,-0.014 z M 4.969,167.786 c -0.006,0.041 -0.005,0.082 -0.013,0.123 -0.036,0.205 -0.101,0.404 -0.188,0.595 -0.02,0.045 -0.046,0.087 -0.07,0.131 -0.083,0.158 -0.184,0.307 -0.301,0.446 -0.021,0.024 -0.031,0.053 -0.053,0.077 l -23.836,26.039 c -0.015,0.016 -0.032,0.028 -0.047,0.044 -0.032,0.033 -0.068,0.064 -0.102,0.095 -0.075,0.07 -0.154,0.136 -0.236,0.195 -0.04,0.029 -0.08,0.057 -0.121,0.083 -0.093,0.059 -0.189,0.11 -0.288,0.156 -0.034,0.016 -0.068,0.036 -0.103,0.05 -0.135,0.056 -0.274,0.099 -0.416,0.129 -0.034,0.008 -0.069,0.011 -0.103,0.017 -0.119,0.02 -0.239,0.033 -0.36,0.036 -0.024,10e-4 -0.045,0.007 -0.068,0.007 h -114.756 c -1.381,0 -2.5,-1.119 -2.5,-2.5 v -19.491 h -46.632 c -1.381,0 -2.5,-1.12 -2.5,-2.5 V -24.491 c 0,-1.381 1.119,-2.5 2.5,-2.5 h 138.592 c 1.381,0 2.5,1.119 2.5,2.5 l 0,19.491 H 2.5 C 3.881,-5 5,-3.881 5,-2.5 v 169.97 c 0,0.107 -0.018,0.211 -0.031,0.316"
            style="fill:#770000;fill-opacity:1;fill-rule:nonzero;stroke:none" id="path20"></path>
        </g>
        <g id="g22" transform="translate(124.3389,117.0537)">
          <path
            d="m 0,0 v -21.355 l -16.557,7.925 z m -23.685,-14.271 c 0.101,-0.852 0.631,-1.592 1.404,-1.962 l 5.292,-2.534 4.331,-2.073 -11.364,-23.848 -14.551,6.934 -4.158,1.982 c -0.599,0.286 -1.286,0.32 -1.911,0.099 -0.625,-0.222 -1.136,-0.682 -1.421,-1.281 l -6.059,-12.718 -6.319,-13.267 -5.684,2.708 -13.124,6.254 c -1.246,0.592 -2.737,0.066 -3.331,-1.179 l -13.574,-28.43 c -0.595,-1.246 -0.067,-2.738 1.179,-3.333 0.348,-0.166 0.714,-0.245 1.075,-0.245 0.934,0 1.829,0.525 2.258,1.424 l 2.521,5.279 9.976,20.896 8.936,-4.259 9.874,-4.705 c 0.599,-0.286 1.286,-0.321 1.911,-0.1 0.625,0.222 1.136,0.683 1.421,1.281 l 12.378,25.986 18.708,-8.915 c 0.599,-0.286 1.285,-0.321 1.911,-0.1 0.625,0.222 1.136,0.683 1.422,1.281 l 12.436,26.098 9.568,-4.58 c 0.343,-0.164 0.711,-0.245 1.08,-0.245 0.464,0 0.927,0.129 1.332,0.385 C 4.559,-26.98 5,-26.182 5,-25.323 V 5.247 C 5,6.211 4.446,7.089 3.575,7.504 2.706,7.917 1.674,7.795 0.925,7.188 l -23.701,-19.225 c -0.666,-0.54 -1.009,-1.383 -0.909,-2.234"
            style="fill:#da291c;fill-opacity:1;fill-rule:nonzero;stroke:none" id="path24"></path>
        </g>
      </g>
    </g>
  </g>
</svg>