<?xml version="1.0" encoding="UTF-8" standalone="no"?>
<!-- Created with Inkscape (http://www.inkscape.org/) -->

<svg
   version="1.1"
   id="svg2"
   width="298.66666"
   height="298.66666"
   viewBox="0 0 298.66666 298.66666"
   xmlns="http://www.w3.org/2000/svg"
   xmlns:svg="http://www.w3.org/2000/svg">
  <defs
     id="defs6">
    <clipPath
       clipPathUnits="userSpaceOnUse"
       id="clipPath16">
      <path
         d="M 0,224 H 224 V 0 H 0 Z"
         id="path14" />
    </clipPath>
  </defs>
  <g
     id="g8"
     transform="matrix(1.3333333,0,0,-1.3333333,0,298.66667)">
    <g
       id="g10">
      <g
         id="g12"
         clip-path="url(#clipPath16)">
        <g
           id="g18"
           transform="translate(115.022,80.9629)">
          <path
             d="M 0,0 C 0.84,-0.146 1.662,-0.357 2.459,-0.638 7.863,-2.533 11.741,-7.21 12.719,-12.727 6.259,-11.576 1.147,-6.462 0,0 m -18.214,-12.729 c 0.146,0.841 0.359,1.663 0.638,2.46 1.895,5.404 6.572,9.283 12.089,10.26 -1.151,-6.46 -6.266,-11.572 -12.727,-12.72 m 15.471,5.631 c 3.106,-5.718 8.829,-9.804 15.542,-10.678 -0.144,-0.97 -0.373,-1.939 -0.709,-2.898 -2.869,-8.179 -11.858,-12.499 -20.035,-9.63 -5.686,1.994 -9.499,6.947 -10.337,12.528 6.712,0.876 12.434,4.961 15.539,10.678 m 16.548,-66.36 v 6.898 c -1.192,-0.565 -2.119,-0.86 -2.545,-0.86 -0.414,0 -1.308,0.282 -2.455,0.819 v -7.545 c -7.259,-0.789 -14.428,-0.846 -21.82,-0.136 v 27.178 c 0,6.015 4.894,10.91 10.911,10.91 3.866,0 7.26,-2.028 9.198,-5.071 1.493,-0.142 2.914,-0.605 4.166,-1.393 0.517,0.325 1.071,0.579 1.638,0.798 -1.15,3.281 -3.333,6.079 -6.175,7.982 4.554,2.34 8.261,6.349 10.085,11.55 0.789,2.249 1.143,4.543 1.147,6.802 0,0.019 0.005,0.037 0.005,0.056 0,0.084 -0.008,0.166 -0.009,0.249 -0.009,0.689 -0.053,1.373 -0.13,2.051 -0.076,0.675 -0.186,1.344 -0.326,2.002 -0.044,0.206 -0.082,0.415 -0.132,0.619 -0.079,0.321 -0.173,0.638 -0.268,0.955 -0.079,0.269 -0.162,0.537 -0.252,0.802 -0.1,0.291 -0.204,0.58 -0.317,0.866 -0.113,0.288 -0.235,0.57 -0.361,0.852 -0.116,0.263 -0.229,0.527 -0.357,0.785 -0.176,0.357 -0.37,0.703 -0.566,1.048 -0.206,0.363 -0.424,0.717 -0.651,1.066 -0.18,0.276 -0.357,0.552 -0.549,0.818 -0.179,0.249 -0.37,0.489 -0.56,0.73 -0.179,0.227 -0.361,0.451 -0.55,0.67 -0.205,0.239 -0.413,0.474 -0.629,0.704 -0.201,0.213 -0.411,0.418 -0.621,0.622 -0.219,0.214 -0.433,0.432 -0.663,0.637 C 10.61,0.371 10.186,0.72 9.748,1.053 9.54,1.21 9.319,1.354 9.105,1.504 8.808,1.711 8.51,1.916 8.201,2.108 7.98,2.246 7.754,2.377 7.527,2.507 7.182,2.705 6.829,2.891 6.471,3.069 6.271,3.168 6.074,3.27 5.87,3.364 5.303,3.623 4.726,3.865 4.129,4.075 4.124,4.077 4.119,4.079 4.114,4.081 4.108,4.083 4.102,4.084 4.096,4.086 3.506,4.293 2.905,4.466 2.297,4.617 1.981,4.696 1.665,4.754 1.349,4.818 1.076,4.872 0.804,4.929 0.528,4.972 c -0.42,0.067 -0.839,0.116 -1.259,0.157 -0.156,0.015 -0.311,0.029 -0.468,0.04 -0.483,0.036 -0.964,0.058 -1.444,0.059 -0.033,0.001 -0.066,0.004 -0.099,0.004 0,0 0,0 -10e-4,0 0,0 -0.001,0 -0.001,0 -0.072,0 -0.143,-0.007 -0.216,-0.008 C -4.359,5.208 -5.739,5.05 -7.088,4.758 -7.277,4.718 -7.469,4.684 -7.657,4.638 -7.985,4.557 -8.308,4.461 -8.631,4.364 -8.894,4.286 -9.156,4.206 -9.415,4.117 -9.71,4.016 -10.002,3.911 -10.291,3.797 -10.576,3.685 -10.856,3.563 -11.136,3.439 -11.4,3.322 -11.666,3.209 -11.926,3.08 -12.283,2.903 -12.631,2.709 -12.977,2.512 -13.334,2.309 -13.683,2.094 -14.028,1.87 -14.308,1.688 -14.589,1.507 -14.86,1.312 -15.105,1.135 -15.341,0.948 -15.579,0.76 -15.811,0.577 -16.04,0.391 -16.264,0.198 c -0.234,-0.201 -0.465,-0.405 -0.691,-0.618 -0.22,-0.208 -0.432,-0.425 -0.644,-0.642 -0.207,-0.213 -0.418,-0.42 -0.616,-0.642 -0.368,-0.412 -0.72,-0.84 -1.055,-1.282 -0.151,-0.2 -0.289,-0.411 -0.433,-0.617 -0.214,-0.306 -0.425,-0.614 -0.624,-0.932 -0.134,-0.216 -0.261,-0.435 -0.388,-0.657 -0.201,-0.352 -0.392,-0.711 -0.573,-1.077 -0.096,-0.194 -0.196,-0.386 -0.286,-0.584 -0.263,-0.573 -0.508,-1.158 -0.72,-1.761 -0.21,-0.599 -0.385,-1.209 -0.538,-1.826 -0.076,-0.301 -0.131,-0.603 -0.192,-0.905 -0.058,-0.289 -0.118,-0.578 -0.163,-0.87 -0.065,-0.407 -0.113,-0.813 -0.153,-1.219 -0.016,-0.172 -0.032,-0.343 -0.044,-0.516 -0.034,-0.469 -0.055,-0.937 -0.058,-1.404 0,-0.039 -0.004,-0.077 -0.004,-0.116 0,-0.025 0.006,-0.05 0.007,-0.075 0.037,-7.879 4.581,-15.292 11.981,-18.718 -3.966,-2.896 -6.557,-7.567 -6.557,-12.841 v -26.559 c -31.118,4.535 -59.111,22.778 -75.726,49.988 L -2.8,28.833 88.148,-23.664 C 71.781,-50.476 44.37,-68.588 13.805,-73.458 M -5.312,138.19 V 33.163 l -90.934,-52.51 c -8.547,15.613 -13.054,33.214 -13.054,51.067 0,57.882 46.419,105.132 103.988,106.47 m 5.012,0.001 c 57.575,-1.333 104,-48.582 104,-106.471 0,-17.849 -4.504,-35.446 -13.048,-51.056 L -0.3,33.176 Z m -2.5,5.029 c -0.002,0 -0.004,-0.001 -0.006,-0.001 -0.002,0 -0.004,0.001 -0.007,0.001 -10e-4,0 -0.003,-0.001 -0.005,-0.001 C -64.29,143.21 -114.3,93.192 -114.3,31.72 c 0,-19.47 5.124,-38.651 14.811,-55.495 0.038,-0.088 0.07,-0.178 0.119,-0.263 0.036,-0.062 0.087,-0.108 0.128,-0.165 17.689,-30.441 48.789,-50.624 83.247,-54.771 0.065,-0.013 0.126,-0.033 0.192,-0.041 0.38,-0.044 0.759,-0.075 1.139,-0.116 0.499,-0.053 0.998,-0.105 1.496,-0.152 0.574,-0.053 1.147,-0.099 1.72,-0.144 0.611,-0.048 1.223,-0.097 1.832,-0.134 0.585,-0.037 1.166,-0.061 1.748,-0.088 0.551,-0.026 1.103,-0.057 1.652,-0.074 1.145,-0.036 2.286,-0.057 3.416,-0.057 1.207,0 2.419,0.021 3.635,0.061 0.517,0.017 1.036,0.051 1.555,0.076 0.705,0.033 1.409,0.06 2.115,0.106 0.351,0.023 0.702,0.059 1.053,0.085 2.025,0.153 4.05,0.347 6.067,0.607 0.049,0.007 0.094,0.023 0.142,0.032 33.978,4.52 64.542,24.649 81.98,54.784 0.003,0.005 0.008,0.008 0.011,0.013 0.004,0.008 0.006,0.016 0.01,0.023 9.769,16.896 14.932,36.16 14.932,55.713 0,61.481 -50.018,111.5 -111.5,111.5"
             style="fill:#770000;fill-opacity:1;fill-rule:nonzero;stroke:none"
             id="path20" />
        </g>
        <g
           id="g22"
           transform="translate(166.7222,116.2856)">
          <path
             d="m 0,0 c -5.957,0 -11.402,2.218 -15.565,5.865 1.268,0.42 2.251,1.043 3.004,1.902 2.019,2.298 1.623,5.323 1.206,8.525 -0.533,4.081 -1.137,8.706 2.544,13.508 2.463,3.213 3.192,8.298 1.772,12.366 -0.457,1.311 -1.122,2.434 -1.944,3.367 2.771,1.143 5.804,1.777 8.983,1.777 1.64,0 3.242,-0.168 4.789,-0.488 C 0.762,42.455 -1.64,33.931 -1.64,28.687 -1.64,24.655 1.292,22.675 3.647,21.084 6.444,19.196 8.028,17.963 7.861,14.756 7.627,14.046 6.136,12.116 5.142,10.83 2.281,7.129 -0.661,3.306 0.423,0.011 0.282,0.008 0.142,0 0,0 m -13.616,42.969 c 0.832,-0.478 1.454,-1.299 1.856,-2.45 0.854,-2.446 0.406,-5.818 -1.019,-7.677 -4.939,-6.442 -4.127,-12.658 -3.534,-17.197 0.255,-1.958 0.52,-3.982 -0.005,-4.58 -0.154,-0.175 -0.801,-0.691 -3.134,-0.829 -2.754,3.969 -4.203,8.582 -4.203,13.419 0,7.739 3.73,14.871 10.039,19.314 M 23.655,23.655 C 23.655,14.609 18.365,6.237 10.178,2.327 9.177,1.849 7.644,1.325 6.013,1.547 5.616,1.601 5.359,1.671 5.203,1.728 c 0.254,1.332 2.686,4.48 3.895,6.044 2.32,3.003 3.638,4.789 3.749,6.585 0.386,6.287 -3.537,8.936 -6.401,10.871 -2.193,1.48 -3.086,2.208 -3.086,3.459 0,5.154 2.977,13.672 6.139,15.657 0.723,0.454 1.193,0.39 1.59,0.2 C 18.84,40.42 23.655,32.416 23.655,23.655 m 4.939,1.784 c -0.011,0.167 -0.025,0.332 -0.038,0.499 -0.036,0.454 -0.083,0.904 -0.14,1.352 -0.019,0.151 -0.036,0.303 -0.058,0.453 -0.083,0.584 -0.181,1.164 -0.3,1.737 -0.009,0.046 -0.022,0.091 -0.031,0.137 -0.112,0.523 -0.24,1.041 -0.379,1.554 -0.044,0.162 -0.091,0.323 -0.138,0.484 -0.124,0.424 -0.257,0.845 -0.4,1.261 -0.049,0.144 -0.095,0.289 -0.146,0.432 -0.188,0.521 -0.39,1.036 -0.607,1.543 -0.068,0.16 -0.143,0.316 -0.215,0.475 -0.16,0.356 -0.326,0.71 -0.501,1.059 -0.1,0.201 -0.202,0.401 -0.308,0.6 -0.178,0.337 -0.365,0.669 -0.556,0.997 -0.112,0.193 -0.222,0.387 -0.339,0.577 -0.251,0.41 -0.514,0.813 -0.785,1.208 -0.134,0.196 -0.273,0.387 -0.412,0.579 -0.201,0.279 -0.408,0.555 -0.619,0.826 -0.138,0.177 -0.274,0.355 -0.416,0.529 -0.336,0.412 -0.682,0.816 -1.041,1.209 -0.096,0.106 -0.198,0.207 -0.296,0.311 -0.31,0.33 -0.627,0.652 -0.952,0.967 -0.114,0.11 -0.228,0.22 -0.344,0.328 -0.88,0.824 -1.81,1.592 -2.787,2.301 -0.048,0.035 -0.096,0.069 -0.145,0.103 -0.505,0.362 -1.022,0.711 -1.551,1.04 -0.003,0.002 -0.006,0.004 -0.01,0.006 -0.544,0.338 -1.099,0.659 -1.667,0.961 -0.021,0.011 -0.041,0.024 -0.063,0.036 -0.013,0.006 -0.026,0.01 -0.038,0.016 C 9.331,51.116 4.803,52.31 0,52.31 c -7.543,0 -14.411,-2.935 -19.533,-7.716 -0.078,-0.072 -0.153,-0.146 -0.23,-0.219 -0.299,-0.286 -0.592,-0.578 -0.879,-0.876 -0.141,-0.146 -0.282,-0.291 -0.42,-0.44 -0.204,-0.221 -0.402,-0.449 -0.599,-0.677 -0.403,-0.463 -0.79,-0.938 -1.161,-1.424 -0.048,-0.063 -0.098,-0.124 -0.145,-0.187 -0.232,-0.309 -0.453,-0.625 -0.671,-0.943 -0.064,-0.092 -0.127,-0.184 -0.189,-0.276 -0.222,-0.331 -0.438,-0.666 -0.645,-1.006 -0.031,-0.051 -0.061,-0.103 -0.092,-0.154 -0.653,-1.084 -1.233,-2.211 -1.736,-3.373 -0.045,-0.106 -0.092,-0.21 -0.137,-0.316 -0.137,-0.327 -0.266,-0.657 -0.391,-0.99 -0.064,-0.171 -0.126,-0.343 -0.187,-0.516 -0.108,-0.307 -0.216,-0.614 -0.314,-0.926 -0.074,-0.235 -0.14,-0.473 -0.208,-0.711 -0.11,-0.384 -0.215,-0.771 -0.309,-1.161 -0.088,-0.366 -0.174,-0.734 -0.249,-1.106 -0.042,-0.213 -0.077,-0.428 -0.115,-0.643 -0.06,-0.339 -0.115,-0.679 -0.163,-1.021 -0.029,-0.21 -0.056,-0.421 -0.08,-0.632 -0.044,-0.371 -0.078,-0.744 -0.107,-1.12 -0.014,-0.181 -0.031,-0.361 -0.042,-0.544 -0.032,-0.555 -0.053,-1.113 -0.053,-1.676 0,0 0,-0.001 0,-0.002 v 0 0 c 0,-0.71 0.035,-1.411 0.086,-2.108 0.011,-0.154 0.022,-0.308 0.035,-0.462 0.06,-0.668 0.14,-1.329 0.245,-1.983 0.023,-0.148 0.053,-0.294 0.079,-0.441 0.104,-0.591 0.225,-1.176 0.365,-1.754 0.027,-0.11 0.049,-0.222 0.077,-0.332 0.166,-0.652 0.361,-1.292 0.571,-1.925 0.046,-0.138 0.091,-0.275 0.139,-0.412 0.23,-0.659 0.481,-1.308 0.757,-1.944 0.017,-0.039 0.035,-0.076 0.052,-0.115 0.249,-0.564 0.52,-1.121 0.807,-1.671 0.151,-0.291 0.316,-0.574 0.476,-0.859 0.141,-0.248 0.278,-0.497 0.426,-0.741 0.201,-0.334 0.413,-0.659 0.627,-0.984 0.12,-0.182 0.242,-0.364 0.367,-0.545 0.239,-0.345 0.485,-0.685 0.739,-1.019 0.047,-0.062 0.088,-0.125 0.135,-0.186 0.016,-0.021 0.038,-0.036 0.054,-0.056 C -17.372,-0.635 -9.194,-5 0,-5 c 14.368,0 26.283,10.634 28.328,24.442 0.009,0.054 0.017,0.109 0.025,0.163 0.085,0.597 0.158,1.197 0.205,1.804 0.01,0.123 0.02,0.245 0.028,0.368 0.041,0.621 0.069,1.246 0.069,1.878 v 0 0 c 0,10e-4 0,10e-4 0,0.002 0,0.599 -0.025,1.192 -0.061,1.782"
             style="fill:#770000;fill-opacity:1;fill-rule:nonzero;stroke:none"
             id="path24" />
        </g>
        <g
           id="g26"
           transform="translate(35.5205,123.2739)">
          <path
             d="m 0,0 9.417,12.955 5.795,-4.213 c 0.537,-0.39 1.206,-0.55 1.861,-0.447 0.655,0.103 1.241,0.463 1.631,0.999 l 9.895,13.612 5.796,-4.212 c 0.539,-0.393 1.212,-0.552 1.873,-0.445 0.658,0.107 1.247,0.474 1.633,1.018 l 10.776,15.147 v -37.2 L 0,-2.786 Z m -2.5,-7.786 h 53.677 c 1.381,0 2.5,1.119 2.5,2.5 v 47.527 c 0,1.088 -0.703,2.051 -1.739,2.382 -1.037,0.331 -2.167,-0.046 -2.798,-0.933 L 35.291,24.223 29.517,28.42 c -0.536,0.39 -1.205,0.55 -1.861,0.448 -0.655,-0.104 -1.241,-0.463 -1.631,-1 L 16.13,14.256 10.334,18.469 C 9.798,18.858 9.129,19.021 8.474,18.916 7.819,18.812 7.232,18.453 6.843,17.917 L 0,8.503 v 33.738 c 0,1.381 -1.119,2.5 -2.5,2.5 -1.381,0 -2.5,-1.119 -2.5,-2.5 v -41.429 -6.098 0 c 0,-1.381 1.119,-2.5 2.5,-2.5"
             style="fill:#770000;fill-opacity:1;fill-rule:nonzero;stroke:none"
             id="path28" />
        </g>
        <g
           id="g30"
           transform="translate(126.2813,18.668)">
          <path
             d="m 0,0 c -2.43,1.054 -9.684,5.674 -9.684,11.502 0,2.532 2.06,4.593 4.593,4.593 1.253,0 2.424,-0.496 3.297,-1.396 0.941,-0.97 2.648,-0.97 3.589,0 0.873,0.9 2.044,1.396 3.297,1.396 2.533,0 4.593,-2.061 4.593,-4.593 C 9.685,5.673 2.431,1.053 0,0 m 14.685,11.502 c 0,5.289 -4.304,9.593 -9.593,9.593 -1.205,0 -2.365,-0.24 -3.453,-0.66 C 1.071,20.216 0.518,19.962 0,19.637 c -1.252,0.788 -2.672,1.251 -4.165,1.393 -0.307,0.03 -0.613,0.065 -0.926,0.065 -5.289,0 -9.593,-4.304 -9.593,-9.593 0,-8.156 7.924,-13.795 12.229,-15.808 1.148,-0.537 2.041,-0.819 2.456,-0.819 0.425,0 1.353,0.295 2.544,0.86 4.325,2.049 12.14,7.668 12.14,15.767"
             style="fill:#d9291c;fill-opacity:1;fill-rule:nonzero;stroke:none"
             id="path32" />
        </g>
      </g>
    </g>
  </g>
</svg>
